 Full Credits To Feel Free :)

 ######## ######## ######## ##          ######## ########  ######## ######## 
 ##       ##       ##       ##          ##       ##     ## ##       ##       
 ##       ##       ##       ##          ##       ##     ## ##       ##       
 ######   ######   ######   ##          ######   ########  ######   ######   
 ##       ##       ##       ##          ##       ##   ##   ##       ##       
 ##       ##       ##       ##          ##       ##    ##  ##       ##       
 ##       ######## ######## ########    ##       ##     ## ######## ######## 

Genre:Comedy | Drama 
 Language:English
 IMDb: 
http://www.imdb.com/title/tt1441956/
 Source:BluRay.X264-AVCHD Thanks!

 Format : MPEG-4
 Format profile : Base Media
 Codec ID : isom
 File size : 2.44 GiB
 Duration : 1h 42mn
 Overall bit rate : 3 397 Kbps

 Video
 ID : 1
 Format : AVC
 Format/Info : Advanced Video Codec
 Format profile : High@L4.1
 Format settings, CABAC : Yes
 Format settings, ReFrames : 3 frames
 Codec ID : avc1
 Codec ID/Info : Advanced Video Coding
 Duration : 1h 42mn
 Bit rate mode : Variable
 Bit rate : 3 000 Kbps
 Maximum bit rate : 14.4 Mbps
 Width : 1 280 pixels
 Height : 688 pixels
 Display aspect ratio : 1.860
 Frame rate mode : Constant
 Frame rate : 24.000 fps
 Color space : YUV
 Chroma subsampling : 4:2:0
 Bit depth : 8 bits
 Scan type : Progressive
 Bits/(Pixel*Frame) : 0.142
 Stream size : 2.12 GiB (87%)
 Writing library : x264

 Audio
 ID : 2
 Format : AAC
 Format/Info : Advanced Audio Codec
 Format version : Version 4
 Format profile : LC
 Format settings, SBR : No
 Codec ID : 40
 Duration : 1h 42mn
 Bit rate mode : Variable
 Bit rate : 442 Kbps
 Maximum bit rate : 559 Kbps
 Channel(s) : 6 channels
 Channel positions : Front: L C R, Side: L R, LFE
 Sampling rate : 48.0 KHz
 Stream size : 325 MiB (13%)

 Plot:
 Manchester, North of England, 1975. The now much diminished, but still claustrophobic and dysfunctional..


 Greets:

 INK,CRYS,IMAGINE,LKRG,FXG,3Li,FLAWL3SS,TA,iLLUSiON,ViSiON,DTRG 
 SAFCuk009,LU,TheFalcon007,MYSTiC,PrisM,Noir,WBZ,LAP,Rx,Kingdom,SAFCuk009+Fabreezy,HDLiTE,TWiZTED,ExtraTorrentRG.ELEKTRI4KA,MAGNAT,CM8
 And to all the other p2p grps past and present






==================================       
http://thepiratebay.org/user/hiest
==================================






 Screenshots:
 
http://leetleech.org/images/64300806515376262632.png
 
http://leetleech.org/images/62343567848281064938.png
 
http://leetleech.org/images/96539397001498422944.png
 
http://leetleech.org/images/31916574830145275850.png
 
http://leetleech.org/images/20412413339494638092.png


 Full Credits To Feel Free :)

 ######## ######## ######## ##          ######## ########  ######## ######## 
 ##       ##       ##       ##          ##       ##     ## ##       ##       
 ##       ##       ##       ##          ##       ##     ## ##       ##       
 ######   ######   ######   ##          ######   ########  ######   ######   
 ##       ##       ##       ##          ##       ##   ##   ##       ##       
 ##       ##       ##       ##          ##       ##    ##  ##       ##       
 ##       ######## ######## ########    ##       ##     ## ######## ######## 